<mxfile host="app.diagrams.net" agent="Mozilla/5.0 (Windows NT 10.0; Win64; x64) AppleWebKit/537.36 (KHTML, like Gecko) Chrome/140.0.0.0 Safari/537.36" version="28.2.5">
  <diagram name="หน้า-1" id="qsUr2hiR4wQmw1ZrqoNu">
    <mxGraphModel dx="1426" dy="743" grid="1" gridSize="10" guides="1" tooltips="1" connect="1" arrows="1" fold="1" page="1" pageScale="1" pageWidth="827" pageHeight="1169" math="0" shadow="0">
      <root>
        <mxCell id="0" />
        <mxCell id="1" parent="0" />
        <mxCell id="h4LRdBW4yxUBOlm-a_2k-18" value="" style="edgeStyle=orthogonalEdgeStyle;rounded=0;orthogonalLoop=1;jettySize=auto;html=1;" edge="1" parent="1" source="2" target="h4LRdBW4yxUBOlm-a_2k-17">
          <mxGeometry relative="1" as="geometry" />
        </mxCell>
        <mxCell id="2" value="Start" style="ellipse;whiteSpace=wrap;html=1;" vertex="1" parent="1">
          <mxGeometry x="300" width="120" height="40" as="geometry" />
        </mxCell>
        <mxCell id="h4LRdBW4yxUBOlm-a_2k-14" value="" style="edgeStyle=orthogonalEdgeStyle;rounded=0;orthogonalLoop=1;jettySize=auto;html=1;" edge="1" parent="1" target="h4LRdBW4yxUBOlm-a_2k-12">
          <mxGeometry relative="1" as="geometry">
            <mxPoint x="360" y="200" as="sourcePoint" />
          </mxGeometry>
        </mxCell>
        <mxCell id="h4LRdBW4yxUBOlm-a_2k-16" value="" style="edgeStyle=orthogonalEdgeStyle;rounded=0;orthogonalLoop=1;jettySize=auto;html=1;" edge="1" parent="1" target="h4LRdBW4yxUBOlm-a_2k-13">
          <mxGeometry relative="1" as="geometry">
            <mxPoint x="360" y="360" as="sourcePoint" />
          </mxGeometry>
        </mxCell>
        <mxCell id="5" value="คำนวณ area = (H * W) / 2" style="rectangle;whiteSpace=wrap;html=1;" vertex="1" parent="1">
          <mxGeometry x="280" y="480" width="160" height="40" as="geometry" />
        </mxCell>
        <mxCell id="7" value="Stop" style="ellipse;whiteSpace=wrap;html=1;" vertex="1" parent="1">
          <mxGeometry x="300" y="640" width="120" height="40" as="geometry" />
        </mxCell>
        <mxCell id="11" edge="1" parent="1" source="5">
          <mxGeometry relative="1" as="geometry">
            <mxPoint x="360" y="555" as="targetPoint" />
          </mxGeometry>
        </mxCell>
        <mxCell id="h4LRdBW4yxUBOlm-a_2k-20" value="" style="edgeStyle=orthogonalEdgeStyle;rounded=0;orthogonalLoop=1;jettySize=auto;html=1;" edge="1" parent="1" source="h4LRdBW4yxUBOlm-a_2k-12">
          <mxGeometry relative="1" as="geometry">
            <mxPoint x="360" y="320" as="targetPoint" />
          </mxGeometry>
        </mxCell>
        <mxCell id="h4LRdBW4yxUBOlm-a_2k-12" value="รับค่า H" style="shape=parallelogram;perimeter=parallelogramPerimeter;whiteSpace=wrap;html=1;fixedSize=1;" vertex="1" parent="1">
          <mxGeometry x="280" y="240" width="160" height="40" as="geometry" />
        </mxCell>
        <mxCell id="h4LRdBW4yxUBOlm-a_2k-15" value="" style="edgeStyle=orthogonalEdgeStyle;rounded=0;orthogonalLoop=1;jettySize=auto;html=1;" edge="1" parent="1" source="h4LRdBW4yxUBOlm-a_2k-13" target="5">
          <mxGeometry relative="1" as="geometry" />
        </mxCell>
        <mxCell id="h4LRdBW4yxUBOlm-a_2k-13" value="รับค่า W" style="shape=parallelogram;perimeter=parallelogramPerimeter;whiteSpace=wrap;html=1;fixedSize=1;" vertex="1" parent="1">
          <mxGeometry x="280" y="400" width="160" height="40" as="geometry" />
        </mxCell>
        <mxCell id="h4LRdBW4yxUBOlm-a_2k-19" value="" style="edgeStyle=orthogonalEdgeStyle;rounded=0;orthogonalLoop=1;jettySize=auto;html=1;" edge="1" parent="1" source="h4LRdBW4yxUBOlm-a_2k-17">
          <mxGeometry relative="1" as="geometry">
            <mxPoint x="360" y="160" as="targetPoint" />
          </mxGeometry>
        </mxCell>
        <mxCell id="h4LRdBW4yxUBOlm-a_2k-17" value="ประกาศตัวแปร H , W, area" style="parallelogram;whiteSpace=wrap;html=1;" vertex="1" parent="1">
          <mxGeometry x="280" y="80" width="160" height="40" as="geometry" />
        </mxCell>
        <mxCell id="h4LRdBW4yxUBOlm-a_2k-22" value="" style="edgeStyle=orthogonalEdgeStyle;rounded=0;orthogonalLoop=1;jettySize=auto;html=1;" edge="1" parent="1" source="h4LRdBW4yxUBOlm-a_2k-21" target="7">
          <mxGeometry relative="1" as="geometry" />
        </mxCell>
        <mxCell id="h4LRdBW4yxUBOlm-a_2k-21" value="แสดงผลลัพธ์ Area = area" style="shape=parallelogram;perimeter=parallelogramPerimeter;whiteSpace=wrap;html=1;fixedSize=1;" vertex="1" parent="1">
          <mxGeometry x="280" y="560" width="160" height="40" as="geometry" />
        </mxCell>
        <mxCell id="h4LRdBW4yxUBOlm-a_2k-23" value="แสดงข้อความ H =" style="shape=parallelogram;perimeter=parallelogramPerimeter;whiteSpace=wrap;html=1;fixedSize=1;" vertex="1" parent="1">
          <mxGeometry x="280" y="160" width="160" height="40" as="geometry" />
        </mxCell>
        <mxCell id="h4LRdBW4yxUBOlm-a_2k-24" value="แสดงข้อความ W =" style="shape=parallelogram;perimeter=parallelogramPerimeter;whiteSpace=wrap;html=1;fixedSize=1;" vertex="1" parent="1">
          <mxGeometry x="280" y="320" width="160" height="40" as="geometry" />
        </mxCell>
      </root>
    </mxGraphModel>
  </diagram>
</mxfile>
